<?xml version="1.0" encoding="utf-8"?><!-- Uploaded to: SVG Repo, www.svgrepo.com, Generator: SVG Repo Mixer Tools -->
<svg fill="#000000" width="800px" height="800px" viewBox="0 0 24 24" id="cloud-strom-4" data-name="Flat Color" xmlns="http://www.w3.org/2000/svg" class="icon flat-color"><path id="primary" d="M5.24,7.18a7,7,0,0,1,13.18-1A5,5,0,0,1,17,16H6.5A4,4,0,0,1,5.86,16a4.5,4.5,0,0,1-.62-8.77Z" style="fill: rgb(0, 0, 0);"></path><path id="secondary" d="M15,14.8a1,1,0,0,0-.57-.64L13,13.57V10a1,1,0,0,0-1.83-.56l-4,5.92a1,1,0,0,0-.13.84,1,1,0,0,0,.57.64L9,17.43V21a1,1,0,0,0,.71,1A.92.92,0,0,0,10,22a1,1,0,0,0,.83-.44l4-5.92A1,1,0,0,0,15,14.8Z" style="fill: rgb(44, 169, 188);"></path></svg>